<svg width="37" height="36" viewBox="0 0 37 36" fill="none" xmlns="http://www.w3.org/2000/svg">
<path d="M17.5518 0.831363C17.8565 -0.078546 19.1435 -0.0785447 19.4482 0.831365L23.2022 12.0404C23.3377 12.4449 23.7148 12.719 24.1414 12.7228L35.9619 12.8292C36.9215 12.8379 37.3192 14.0619 36.5479 14.6329L27.0475 21.6669C26.7047 21.9208 26.5606 22.3642 26.6888 22.771L30.2403 34.0459C30.5286 34.9611 29.4874 35.7176 28.706 35.1606L19.0805 28.2988C18.7331 28.0512 18.2669 28.0512 17.9195 28.2988L8.29399 35.1606C7.51262 35.7176 6.47142 34.9611 6.75971 34.0459L10.3112 22.771C10.4394 22.3642 10.2953 21.9208 9.95246 21.6669L0.45205 14.6329C-0.319158 14.0619 0.0785508 12.8379 1.03809 12.8292L12.8586 12.7228C13.2852 12.719 13.6623 12.4449 13.7978 12.0404L17.5518 0.831363Z" fill="#FFCB3C"/>
</svg>
